# xmcd
#
# Track frame offsets:
#	150
#	61748
#	124959
#	207473
#
# Disc length: 3303 seconds
#
# Revision: 1
# Processed by: cddbd v1.5.2PL0 Copyright (c) Steve Scherf et al.
# Submitted via: audiograbber 1.83.01
#
DISCID=370ce504
DTITLE=Grateful Dead - 78-04-18 Pittsburgh Civic Arena, Pittsburgh PA
DYEAR=1900
DGENRE=
TTITLE0=Scarlet Begonias
TTITLE1=Dancing In The Streets
TTITLE2=Drums
TTITLE3=Samson and Delilah
EXTD=
EXTT0=
EXTT1=
EXTT2=
EXTT3=
PLAYORDER=
